<svg xmlns="http://www.w3.org/2000/svg" viewBox="0 0 32 32" fill="none">
  <!-- Left page -->
  <path
    d="M16 26 C16 26 7 23 4 20 L4 7 C7 10 16 13 16 13 Z"
    fill="#7c3aed"
    stroke="#5b21b6"
    stroke-width="1"
    stroke-linejoin="round"
  />
  <!-- Right page -->
  <path
    d="M16 26 C16 26 25 23 28 20 L28 7 C25 10 16 13 16 13 Z"
    fill="#a78bfa"
    stroke="#7c3aed"
    stroke-width="1"
    stroke-linejoin="round"
  />
  <!-- Left page lines -->
  <line x1="7.5" y1="13" x2="14" y2="15.5" stroke="#ede9fe" stroke-width="1" stroke-linecap="round"/>
  <line x1="7"   y1="16" x2="14" y2="18"   stroke="#ede9fe" stroke-width="1" stroke-linecap="round"/>
  <line x1="7"   y1="19" x2="14" y2="20.5" stroke="#ede9fe" stroke-width="1" stroke-linecap="round"/>
  <!-- Right page lines -->
  <line x1="24.5" y1="13" x2="18" y2="15.5" stroke="#ddd6fe" stroke-width="1" stroke-linecap="round"/>
  <line x1="25"   y1="16" x2="18" y2="18"   stroke="#ddd6fe" stroke-width="1" stroke-linecap="round"/>
  <line x1="25"   y1="19" x2="18" y2="20.5" stroke="#ddd6fe" stroke-width="1" stroke-linecap="round"/>
  <!-- Spine / center crease -->
  <line x1="16" y1="13" x2="16" y2="26" stroke="#5b21b6" stroke-width="1.5" stroke-linecap="round"/>
</svg>
